<svg width="491" height="137" viewBox="0 0 491 137" fill="none" xmlns="http://www.w3.org/2000/svg">
<path d="M171.35 135V91.5548L156.082 32.9801H170.795L178.152 65.5987L178.637 70.0404H179.054L179.54 65.5987L186.896 32.9801H201.609L186.341 91.5548V135H171.35ZM224.498 135.972C218.899 135.972 214.504 134.098 211.311 130.35C208.119 126.556 206.523 121.767 206.523 115.984V77.9521C206.523 72.1687 208.119 67.4032 211.311 63.6555C214.504 59.8616 218.899 57.9646 224.498 57.9646C230.05 57.9646 234.422 59.8616 237.614 63.6555C240.853 67.4032 242.473 72.1687 242.473 77.9521V115.984C242.473 121.767 240.853 126.556 237.614 130.35C234.422 134.098 230.05 135.972 224.498 135.972ZM224.498 123.757C226.302 123.757 227.551 123.04 228.245 121.606C228.939 120.125 229.286 118.251 229.286 115.984V77.9521C229.286 75.6388 228.939 73.7649 228.245 72.3306C227.551 70.8964 226.302 70.1792 224.498 70.1792C222.693 70.1792 221.444 70.8964 220.75 72.3306C220.056 73.7649 219.709 75.6388 219.709 77.9521V115.984C219.709 118.297 220.056 120.171 220.75 121.606C221.444 123.04 222.693 123.757 224.498 123.757ZM259.244 136.11C256.93 136.11 254.987 135.37 253.414 133.89C251.841 132.409 250.661 130.535 249.875 128.268C249.088 125.955 248.695 123.618 248.695 121.259V59.075H262.714V118.482C262.714 119.917 262.968 120.958 263.477 121.606C264.032 122.207 264.888 122.508 266.045 122.508C267.063 122.508 267.919 122.161 268.613 121.467C269.353 120.726 270.024 119.871 270.626 118.899V59.075H284.645V135H270.626V128.615C268.96 130.188 267.086 131.831 265.004 133.543C262.922 135.254 261.002 136.11 259.244 136.11ZM293.61 135V32.9801H308.601V121.12H328.45V135H293.61ZM349.815 136.11C344.216 136.11 339.798 134.19 336.559 130.35C333.367 126.464 331.77 121.721 331.77 116.123V77.9521C331.77 72.0299 333.367 67.2181 336.559 63.5167C339.751 59.8153 344.216 57.9646 349.953 57.9646C353.701 57.9646 356.917 58.8205 359.6 60.5324C362.33 62.2443 364.412 64.5808 365.846 67.542C367.281 70.4568 367.998 73.7881 367.998 77.5357V99.6053H344.818V116.123C344.818 118.02 345.234 119.778 346.067 121.397C346.946 122.97 348.242 123.757 349.953 123.757C351.758 123.757 353.03 123.017 353.77 121.536C354.557 120.056 354.95 118.251 354.95 116.123V107.795H367.998V116.539C367.998 122.415 366.402 127.158 363.209 130.767C360.063 134.329 355.598 136.11 349.815 136.11ZM344.818 88.6399H354.95V77.9521C354.95 75.8701 354.58 74.0657 353.84 72.5388C353.146 70.9658 351.85 70.1792 349.953 70.1792C348.195 70.1792 346.9 70.9889 346.067 72.6082C345.234 74.1813 344.818 75.9626 344.818 77.9521V88.6399ZM384.432 136.11C381.193 136.11 378.394 134.468 376.034 131.183C373.675 127.898 372.495 122.878 372.495 116.123C372.495 109.599 373.883 104.348 376.659 100.369C379.481 96.3898 383.691 92.9428 389.29 90.028C391.048 89.1026 392.529 88.2698 393.732 87.5295C394.934 86.7892 395.675 86.0952 395.952 85.4475V77.1193C395.952 75.2224 395.721 73.603 395.258 72.2612C394.842 70.8732 393.778 70.1792 392.066 70.1792C390.493 70.1792 389.429 70.9195 388.873 72.4C388.318 73.8343 388.041 75.6388 388.041 77.8133V81.4222H374.022V78.2298C374.022 74.0657 374.831 70.4799 376.451 67.4726C378.116 64.4189 380.36 62.0824 383.183 60.463C386.051 58.7974 389.29 57.9646 392.899 57.9646C396.369 57.9646 399.376 58.7743 401.921 60.3936C404.466 61.9667 406.432 64.1644 407.82 66.9867C409.254 69.7628 409.971 72.9553 409.971 76.5641V121.814C409.971 125.191 410.064 127.829 410.249 129.726C410.434 131.576 410.665 133.334 410.943 135H397.202C396.6 134.26 396.23 133.172 396.091 131.738C395.999 130.304 395.952 129.355 395.952 128.893H394.981C393.824 131.021 392.343 132.756 390.539 134.098C388.781 135.44 386.745 136.11 384.432 136.11ZM390.123 122.369C391.742 122.369 393.107 121.814 394.217 120.703C395.374 119.593 395.952 118.39 395.952 117.094V99.0501C392.575 100.484 390.1 102.659 388.526 105.574C387 108.442 386.236 111.681 386.236 115.29C386.236 116.863 386.537 118.436 387.138 120.009C387.74 121.582 388.735 122.369 390.123 122.369ZM417.86 135V59.075H431.879V67.542C432.157 65.6913 433.013 64.0488 434.447 62.6145C435.882 61.1802 437.617 60.0466 439.652 59.2138C441.734 58.381 443.816 57.9646 445.899 57.9646V73.5105C445.297 73.2791 444.649 73.1403 443.955 73.0941C443.308 73.0015 442.66 72.9553 442.012 72.9553C438.958 72.9553 436.506 73.7881 434.655 75.4537C432.805 77.1193 431.879 79.3864 431.879 82.255V135H417.86ZM450.799 135V59.075H464.818V65.4599C466.484 63.8406 468.357 62.1981 470.439 60.5324C472.521 58.8205 474.442 57.9646 476.2 57.9646C478.513 57.9646 480.456 58.7049 482.029 60.1854C483.603 61.666 484.782 63.5398 485.569 65.8069C486.355 68.074 486.749 70.4105 486.749 72.8165V135H472.73V75.5925C472.73 74.1119 472.475 73.0709 471.966 72.4694C471.457 71.868 470.601 71.5672 469.398 71.5672C468.381 71.5672 467.501 71.9374 466.761 72.6777C466.067 73.3717 465.419 74.2045 464.818 75.1761V135H450.799Z" fill="white"/>
<path fill-rule="evenodd" clip-rule="evenodd" d="M23 35C10.2975 35 0 45.2975 0 58V114C0 126.703 10.2974 137 23 137H120C132.703 137 143 126.703 143 114V58C143 45.2975 132.703 35 120 35H23ZM104.847 114.805C104.464 115.278 103.888 115.552 103.28 115.552H99.3496C98.7411 115.552 98.1655 115.278 97.7823 114.805C97.3993 114.332 97.2497 113.712 97.3755 113.117L98.6462 107.104C97.9226 106.404 97.4676 105.427 97.4676 104.34C97.4676 103.196 97.9772 102.181 98.7681 101.476V83.747L103.862 80.595V101.476C104.652 102.181 105.162 103.196 105.162 104.34C105.162 105.427 104.707 106.404 103.983 107.104L105.254 113.117C105.38 113.712 105.23 114.332 104.847 114.805ZM71.8704 47.8979L105.006 68.41C105.891 68.9572 106.429 69.9245 106.429 70.9652C106.429 72.0061 105.891 72.9737 105.006 73.5218L71.8702 94.0342C70.8999 94.6322 69.8058 94.932 68.7118 94.932C67.6178 94.932 66.5231 94.6326 65.5585 94.0342L32.4222 73.5218C31.5374 72.9735 31 72.0061 31 70.9652C31 69.9245 31.5374 68.9575 32.4222 68.41L65.5587 47.8979C66.5232 47.2998 67.618 47 68.712 47C69.806 47 70.8999 47.3001 71.8704 47.8979ZM62.8772 98.3651C64.6332 99.452 66.6477 100.025 68.7118 100.025C70.7759 100.025 72.7953 99.452 74.5513 98.3651L93.8791 86.3991V107.003C93.8791 113.101 82.6087 118.038 68.7118 118.038C54.8198 118.038 43.5486 113.102 43.5486 107.003V86.3991L62.8772 98.3651Z" fill="#FF0000"/>
</svg>
